<?xml version="1.0" encoding="UTF-8"?>
<!DOCTYPE svg PUBLIC "-//W3C//DTD SVG 1.1//EN" "http://www.w3.org/Graphics/SVG/1.1/DTD/svg11.dtd">
<svg xmlns="http://www.w3.org/2000/svg" version="1.1" width="512px" height="512px" style="shape-rendering:geometricPrecision; text-rendering:geometricPrecision; image-rendering:optimizeQuality; fill-rule:evenodd; clip-rule:evenodd" xmlns:xlink="http://www.w3.org/1999/xlink">
<g><path style="opacity:0.973" fill="#010100" d="M 272.5,233.5 C 269.635,235.793 266.302,237.126 262.5,237.5C 258.963,237.065 255.963,235.565 253.5,233C 238.122,220.63 225.289,206.13 215,189.5C 217.004,165.131 219.671,140.797 223,116.5C 226.993,94.4934 221.66,75.1601 207,58.5C 200.374,69.5847 193.874,80.7514 187.5,92C 185.232,93.5519 182.732,94.3852 180,94.5C 175.477,93.1595 170.977,91.6595 166.5,90C 158.3,88.4635 150.634,89.7968 143.5,94C 131.867,104.49 118.867,112.99 104.5,119.5C 104.167,120.333 103.833,121.167 103.5,122C 104.701,127.107 105.534,132.274 106,137.5C 107.4,140.902 109.567,143.736 112.5,146C 129.523,155.037 146.023,164.871 162,175.5C 165.039,186.464 160.872,191.298 149.5,190C 146.922,188.335 144.255,187.335 141.5,187C 122.759,210.658 111.259,237.491 107,267.5C 106.5,275.827 106.334,284.16 106.5,292.5C 119.669,290.578 130.003,284.078 137.5,273C 147.842,269.238 153.008,272.738 153,283.5C 142.482,300.99 126.982,310.823 106.5,313C 82.8333,313.333 59.1667,313.667 35.5,314C 24.0723,317.69 18.739,325.523 19.5,337.5C 51.8351,337.667 84.1684,337.5 116.5,337C 136.448,333.805 154.114,325.805 169.5,313C 177.686,310.123 182.686,312.956 184.5,321.5C 184.237,324.028 183.404,326.361 182,328.5C 178.667,331.167 175.333,333.833 172,336.5C 171.333,342.5 171.333,348.5 172,354.5C 203.327,389.247 242.16,409.914 288.5,416.5C 272.885,384.875 277.885,357.041 303.5,333C 313.455,330.635 318.288,334.468 318,344.5C 312.947,350.552 308.281,356.885 304,363.5C 297.639,378.456 298.306,393.122 306,407.5C 310.648,414.146 315.982,420.146 322,425.5C 323.202,431.899 320.702,436.066 314.5,438C 302.5,438.333 290.5,438.667 278.5,439C 268.406,442.091 261.073,448.424 256.5,458C 292.2,458.96 327.867,458.627 363.5,457C 400.989,446.845 423.156,422.679 430,384.5C 433.045,350.096 420.545,322.929 392.5,303C 374.104,293.803 355.437,285.136 336.5,277C 332.627,273.133 331.627,268.633 333.5,263.5C 336.788,259.198 341.121,257.698 346.5,259C 363.619,266.392 380.619,274.059 397.5,282C 405.877,286.874 413.544,292.707 420.5,299.5C 441.818,275.917 450.651,248.25 447,216.5C 445.332,209.499 442.332,203.166 438,197.5C 432.387,191.887 426.721,186.221 421,180.5C 400.005,152.86 396.005,122.86 409,90.5C 418.615,70.885 433.449,56.7183 453.5,48C 472.143,43.2419 485.643,49.4086 494,66.5C 498.607,81.3383 495.107,93.8383 483.5,104C 467.403,109.691 462.237,120.525 468,136.5C 491.608,156.726 506.108,182.059 511.5,212.5C 511.5,223.833 511.5,235.167 511.5,246.5C 505.301,291.898 485.134,329.898 451,360.5C 454.227,410.564 433.727,447.064 389.5,470C 376.425,475.685 362.758,478.685 348.5,479C 312.453,479.974 276.453,479.641 240.5,478C 237.572,476.74 235.739,474.573 235,471.5C 233.836,454.667 239.669,440.834 252.5,430C 222.689,420.353 196.189,405.186 173,384.5C 172.667,407.167 172.333,429.833 172,452.5C 169.718,468.448 160.552,477.281 144.5,479C 124.795,479.924 105.129,479.59 85.5,478C 73.3938,472.282 68.8938,462.782 72,449.5C 76.8615,431.136 88.6949,420.803 107.5,418.5C 108.284,398.336 106.95,378.336 103.5,358.5C 73.4981,358.667 43.4981,358.5 13.5,358C 6.92774,356.915 2.26108,353.415 -0.5,347.5C -0.5,340.167 -0.5,332.833 -0.5,325.5C 3.71669,310.778 13.05,300.611 27.5,295C 47.1122,293.549 66.7789,293.049 86.5,293.5C 84.5303,260.536 91.697,229.536 108,200.5C 113.364,192.635 118.53,184.635 123.5,176.5C 115.666,171.415 107.666,166.582 99.5,162C 91.1973,155.571 86.364,147.071 85,136.5C 83.9264,129.318 82.7597,122.151 81.5,115C 81.6684,111.156 83.3351,108.156 86.5,106C 102.69,98.0782 117.69,88.4116 131.5,77C 145.302,68.9624 159.802,67.129 175,71.5C 181.586,60.6633 187.919,49.6633 194,38.5C 199.62,30.8034 206.12,29.9701 213.5,36C 233.554,53.7779 243.887,76.1112 244.5,103C 242.12,129.92 239.12,156.754 235.5,183.5C 245.774,197.941 257.94,210.608 272,221.5C 273.824,225.426 273.99,229.426 272.5,233.5 Z"/></g>
<g><path style="opacity:1" fill="#dba88a" d="M 272.5,233.5 C 278.835,238.003 285.502,242.003 292.5,245.5C 290.299,251.61 291.966,256.443 297.5,260C 303.565,261.373 308.231,259.54 311.5,254.5C 318.679,257.893 326.013,260.893 333.5,263.5C 331.627,268.633 332.627,273.133 336.5,277C 355.437,285.136 374.104,293.803 392.5,303C 420.545,322.929 433.045,350.096 430,384.5C 423.156,422.679 400.989,446.845 363.5,457C 327.867,458.627 292.2,458.96 256.5,458C 261.073,448.424 268.406,442.091 278.5,439C 290.5,438.667 302.5,438.333 314.5,438C 320.702,436.066 323.202,431.899 322,425.5C 315.982,420.146 310.648,414.146 306,407.5C 298.306,393.122 297.639,378.456 304,363.5C 308.281,356.885 312.947,350.552 318,344.5C 318.288,334.468 313.455,330.635 303.5,333C 277.885,357.041 272.885,384.875 288.5,416.5C 242.16,409.914 203.327,389.247 172,354.5C 171.333,348.5 171.333,342.5 172,336.5C 175.333,333.833 178.667,331.167 182,328.5C 183.404,326.361 184.237,324.028 184.5,321.5C 182.686,312.956 177.686,310.123 169.5,313C 154.114,325.805 136.448,333.805 116.5,337C 84.1684,337.5 51.8351,337.667 19.5,337.5C 18.739,325.523 24.0723,317.69 35.5,314C 59.1667,313.667 82.8333,313.333 106.5,313C 126.982,310.823 142.482,300.99 153,283.5C 153.008,272.738 147.842,269.238 137.5,273C 130.003,284.078 119.669,290.578 106.5,292.5C 106.334,284.16 106.5,275.827 107,267.5C 111.259,237.491 122.759,210.658 141.5,187C 144.255,187.335 146.922,188.335 149.5,190C 160.872,191.298 165.039,186.464 162,175.5C 146.023,164.871 129.523,155.037 112.5,146C 109.567,143.736 107.4,140.902 106,137.5C 105.534,132.274 104.701,127.107 103.5,122C 103.833,121.167 104.167,120.333 104.5,119.5C 118.867,112.99 131.867,104.49 143.5,94C 150.634,89.7968 158.3,88.4635 166.5,90C 170.977,91.6595 175.477,93.1595 180,94.5C 182.732,94.3852 185.232,93.5519 187.5,92C 193.874,80.7514 200.374,69.5847 207,58.5C 221.66,75.1601 226.993,94.4934 223,116.5C 219.671,140.797 217.004,165.131 215,189.5C 225.289,206.13 238.122,220.63 253.5,233C 255.963,235.565 258.963,237.065 262.5,237.5C 266.302,237.126 269.635,235.793 272.5,233.5 Z"/></g>
<g><path style="opacity:1" fill="#d8a688" d="M 461.5,66.5 C 473.909,67.7289 477.742,74.0623 473,85.5C 444.944,99.9998 437.944,121.333 452,149.5C 488.414,180.449 500.081,219.116 487,265.5C 479.607,293.675 465.44,317.675 444.5,337.5C 441.617,330.067 437.951,323.067 433.5,316.5C 462.684,284.43 473.184,247.096 465,204.5C 459.428,189.928 450.428,177.928 438,168.5C 418.263,143.316 416.596,116.983 433,89.5C 440.789,79.5463 450.289,71.8797 461.5,66.5 Z"/></g>
<g><path style="opacity:1" fill="#050303" d="M 153.5,108.5 C 164.324,107.156 168.824,111.823 167,122.5C 163.702,127.22 159.202,128.72 153.5,127C 148.78,123.702 147.28,119.202 149,113.5C 150.366,111.638 151.866,109.972 153.5,108.5 Z"/></g>
<g><path style="opacity:0.942" fill="#040202" d="M 311.5,254.5 C 308.231,259.54 303.565,261.373 297.5,260C 291.966,256.443 290.299,251.61 292.5,245.5C 295.988,240.811 300.655,239.311 306.5,241C 311.44,244.324 313.107,248.824 311.5,254.5 Z"/></g>
<g><path style="opacity:1" fill="#daa78a" d="M 150.5,347.5 C 151.664,382.664 151.831,417.998 151,453.5C 149.773,455.726 147.939,457.226 145.5,458C 127.503,458.5 109.503,458.667 91.5,458.5C 92.0472,448.571 97.0472,442.071 106.5,439C 111.167,438.667 115.833,438.333 120.5,438C 124,437.167 126.167,435 127,431.5C 127.667,413.167 127.667,394.833 127,376.5C 126.668,369.341 125.501,362.341 123.5,355.5C 133.006,354.211 142.006,351.544 150.5,347.5 Z"/></g>
</svg>
